<svg xmlns="http://www.w3.org/2000/svg" width="960" height="480" viewBox="0 0 960 480"><rect width="100%" height="100%" fill="#DDDDDD"/><path fill="#999999" d="M211.23 221.65q0 7.68 3.97 11.71 3.97 4.04 11.27 4.04 3.81 0 6.8-1.21 2.98-1.21 5.02-3.3 2.03-2.1 3.07-4.96 1.05-2.85 1.05-6.16 0-3.74-1.14-6.69-1.14-2.96-3.24-4.99-2.09-2.03-4.98-3.11t-6.32-1.08q-3.56 0-6.42 1.17-2.85 1.18-4.88 3.28-2.04 2.09-3.12 4.98t-1.08 6.32m-7.68 64.26 28.51-35.62q1.08-1.34 2.03-2.61.96-1.27 1.85-2.54-3.18 2.04-6.99 3.08-3.81 1.05-8 1.05-4.76 0-9.33-1.65-4.58-1.65-8.13-4.99-3.56-3.33-5.75-8.25t-2.19-11.53q0-6.16 2.29-11.55 2.28-5.4 6.41-9.46 4.13-4.07 9.91-6.42 5.77-2.35 12.76-2.35 7.05 0 12.67 2.23 5.62 2.22 9.59 6.22 3.96 4 6.09 9.59 2.13 5.58 2.13 12.25 0 4.26-.73 8.07t-2.07 7.33q-1.33 3.53-3.23 6.89-1.91 3.37-4.26 6.67l-21.02 29.97q-1.08 1.52-3.24 2.57-2.15 1.05-4.88 1.05zm120.78-91.82-27.24 33.34-3.18 3.93q2.67-1.33 5.75-2.06t6.63-.73q5.21 0 10.13 1.71 4.92 1.72 8.67 5.18t6.03 8.6q2.29 5.15 2.29 12.01 0 6.41-2.35 12.03t-6.61 9.81q-4.25 4.19-10.25 6.6-6 2.42-13.24 2.42-7.37 0-13.21-2.35t-9.97-6.58q-4.13-4.22-6.32-10.16-2.19-5.93-2.19-13.17 0-6.48 2.64-13.31 2.63-6.82 8.16-14.19l21.91-29.4q1.14-1.52 3.33-2.6t5.05-1.08zm-23.69 80.01q3.75 0 6.89-1.27 3.15-1.27 5.4-3.56 2.25-2.28 3.52-5.36t1.27-6.7q0-3.94-1.2-7.08-1.21-3.15-3.43-5.34t-5.34-3.33q-3.11-1.14-6.85-1.14-3.75 0-6.8 1.27t-5.21 3.52q-2.15 2.26-3.36 5.34t-1.21 6.63q0 3.81 1.05 6.95 1.05 3.15 3.11 5.37 2.07 2.22 5.11 3.46 3.05 1.24 7.05 1.24M408.08 240q0 12-2.57 20.86t-7.11 14.64q-4.54 5.77-10.73 8.6t-13.37 2.83q-7.17 0-13.3-2.83t-10.64-8.6q-4.51-5.78-7.05-14.64T340.77 240q0-12.07 2.54-20.89 2.54-8.83 7.05-14.61t10.64-8.6q6.13-2.83 13.3-2.83 7.18 0 13.37 2.83 6.19 2.82 10.73 8.6t7.11 14.61q2.57 8.82 2.57 20.89m-16.19 0q0-9.97-1.46-16.51t-3.9-10.41q-2.45-3.88-5.62-5.43-3.18-1.56-6.61-1.56-3.36 0-6.51 1.56-3.14 1.55-5.55 5.43-2.42 3.87-3.84 10.41-1.43 6.54-1.43 16.51t1.43 16.51q1.42 6.54 3.84 10.41 2.41 3.88 5.55 5.43 3.15 1.56 6.51 1.56 3.43 0 6.61-1.56 3.17-1.55 5.62-5.43 2.44-3.87 3.9-10.41t1.46-16.51m117.03 24.89-8.32 8.19-21.52-21.52-21.72 21.65-8.32-8.19 21.72-21.78-20.7-20.7 8.25-8.26 20.7 20.7 20.58-20.57 8.38 8.25-20.64 20.64zm54.99-13.59h27.94v-30.03q0-4.26.57-9.4zm41.6 0h11.55v9.08q0 1.27-.82 2.19-.83.92-2.35.92h-8.38v22.42h-13.66v-22.42h-38.73q-1.59 0-2.8-.98-1.2-.98-1.52-2.44l-1.65-7.94 43.5-58.1h14.86zm51.62 23.37q3.87 0 6.8-1.11 2.92-1.11 4.92-3.08t3.01-4.7q1.02-2.73 1.02-5.91 0-7.55-4.19-11.43-4.19-3.87-11.56-3.87-7.36 0-11.56 3.87-4.19 3.88-4.19 11.43 0 3.18 1.02 5.91t3.02 4.7 4.92 3.08 6.79 1.11m0-69.79q-3.49 0-6.03 1.08t-4.22 2.89q-1.69 1.81-2.48 4.16t-.79 4.95q0 2.74.66 5.31.67 2.57 2.26 4.57 1.58 2 4.19 3.21 2.6 1.2 6.41 1.2t6.41-1.2q2.61-1.21 4.2-3.21 1.58-2 2.25-4.57t.67-5.31q0-2.6-.83-4.95-.82-2.35-2.48-4.16-1.65-1.81-4.19-2.89t-6.03-1.08m15.5 33.15q8.38 2.73 12.38 8.35t4 13.75q0 6.1-2.32 11.05t-6.51 8.44q-4.19 3.5-10.06 5.4-5.88 1.91-12.99 1.91t-12.98-1.91q-5.88-1.9-10.07-5.4-4.19-3.49-6.51-8.44t-2.32-11.05q0-8.13 4-13.75 4.01-5.62 12.39-8.35-6.67-2.79-10-7.94-3.34-5.14-3.34-12.38 0-5.21 2.13-9.71 2.13-4.51 5.94-7.85 3.81-3.33 9.11-5.2 5.3-1.88 11.65-1.88t11.65 1.88q5.31 1.87 9.12 5.2 3.81 3.34 5.93 7.85 2.13 4.5 2.13 9.71 0 7.24-3.33 12.38-3.34 5.15-10 7.94m91.82 1.97q0 12-2.58 20.86-2.57 8.86-7.11 14.64-4.54 5.77-10.73 8.6t-13.37 2.83q-7.17 0-13.3-2.83t-10.64-8.6q-4.5-5.78-7.04-14.64T697.14 240q0-12.07 2.54-20.89 2.54-8.83 7.04-14.61 4.51-5.78 10.64-8.6 6.13-2.83 13.3-2.83 7.18 0 13.37 2.83 6.19 2.82 10.73 8.6t7.11 14.61q2.58 8.82 2.58 20.89m-16.2 0q0-9.97-1.46-16.51t-3.9-10.41q-2.45-3.88-5.62-5.43-3.18-1.56-6.61-1.56-3.36 0-6.5 1.56-3.15 1.55-5.56 5.43-2.41 3.87-3.84 10.41T713.33 240t1.43 16.51 3.84 10.41q2.41 3.88 5.56 5.43 3.14 1.56 6.5 1.56 3.43 0 6.61-1.56 3.17-1.55 5.62-5.43 2.44-3.87 3.9-10.41t1.46-16.51"/></svg>